<?xml version="1.0" encoding="UTF-8"?>
<svg viewBox="0 0 640 480" xmlns="http://www.w3.org/2000/svg">
 <g fill-rule="evenodd" stroke-width="0">
  <path d="m296.74 248.91c-17.604 0.39603-37.332-0.21597-59.868-1.836-22.716-1.691-47.124-4.392-74.772-8.1v-13.32c-15.984-2.34-29.988-4.572-42.588-7.092-12.6-2.521-23.22-5.076-32.436-7.813 10.152-2.52 19.296-5.004 28.26-7.056 8.82-2.088 16.956-4.14 24.552-5.76-10.62-5.652-20.016-11.232-28.764-16.74-8.783-5.651-16.343-10.943-23.255-16.451 15.552 3.349 29.7 6.265 42.876 8.604 13.068 2.34 20.988 3.527 35.568 5.508 14.616 1.908 31.5 3.78 51.48 5.76v14.112c10.98 1.116 22.824 1.979 36.072 2.592 13.212 0.53998 27.144 0.93701 42.624 1.044h0.50397c15.444-0.107 29.376-0.50403 42.624-1.044 13.177-0.612 25.057-1.476 36.072-2.592v-14.112c19.944-1.979 36.828-3.852 51.48-5.76 14.58-1.98 22.355-3.168 35.567-5.508 13.177-2.34 27.181-5.256 42.841-8.604-6.948 5.508-14.509 10.8-23.257 16.452-8.784 5.508-18.216 11.088-28.728 16.74 7.56 1.62 15.695 3.672 24.552 5.76 8.784 2.052 18.144 4.536 28.224 7.056-9.2161 2.736-19.836 5.292-32.399 7.813-12.672 2.52-26.604 4.752-42.624 7.092v13.32c-27.576 3.708-52.164 6.408-74.736 8.1-22.573 1.619-42.3 2.232-59.869 1.835z" fill="#fff"/>
  <g fill="#437abe" stroke="#000" stroke-miterlimit="10">
   <path d="m95.133 167.44c7.056 1.98 15.768 3.924 26.424 5.976 10.692 2.053 22.248 4.068 37.188 6.192 14.868 2.016 31.752 3.96 51.48 5.977-5.976 0.396-12.708 1.26-20.736 2.592-8.064 1.368-16.848 2.987-26.928 5.256v29.808c-7.704-1.116-17.028-2.844-28.368-4.788-11.448-1.979-24.228-4.571-39.312-7.38 11.484-3.24 21.348-5.724 30.024-7.848 8.712-2.088 15.588-3.601 21.456-4.536-6.984-3.456-14.508-7.704-23.112-12.888-8.568-5.221-17.893-11.341-28.116-18.361z"/>
   <path d="m169.72 193.68l47.412-8.1v12.6c-7.92-0.53999-15.588-1.116-23.58-1.872-7.956-0.79201-15.805-1.621-23.832-2.628z"/>
   <path d="m500.35 167.44c-7.128 1.98-15.768 3.924-26.46 5.976-10.8 2.053-22.32 4.068-37.188 6.192-14.903 2.016-31.787 3.96-51.479 5.977 5.904 0.396 12.672 1.26 20.736 2.592 8.027 1.368 16.812 2.987 26.928 5.256v29.808c7.668-1.116 16.992-2.844 28.368-4.788 11.376-1.979 24.264-4.571 39.348-7.38-11.556-3.24-21.384-5.724-30.024-7.848-8.747-2.088-15.624-3.601-21.456-4.536 6.912-3.456 14.473-7.704 23.112-12.888 8.531-5.221 17.855-11.341 28.115-18.361z"/>
   <path d="m425.76 193.68l-47.448-8.1v12.6c7.848-0.53999 15.624-1.116 23.616-1.872 7.92-0.79201 15.767-1.621 23.832-2.628z"/>
   <path d="m295.8 248.07c-11.124 0.14502-23.832-0.17999-39.096-0.97198-15.372-0.97198-36.216-2.448-51.696-4.032-15.444-1.62-28.728-3.24-40.284-5.256v-41.94c11.34 1.62 22.788 3.097 34.776 4.284 11.988 1.08 20.304 1.98 36.468 2.844 16.092 0.79201 35.604 1.513 59.364 2.16h4.823c23.761-0.647 43.164-1.368 59.328-2.16 15.984-0.86299 24.444-1.764 36.468-2.844 11.952-1.188 23.364-2.664 34.813-4.284v41.94c-11.628 2.016-24.876 3.636-40.284 5.256-15.552 1.584-36.504 3.061-51.732 4.032-15.3 0.79199-28.044 1.116-39.06 0.97198h-3.888z"/>
  </g>
 </g>
</svg>
